<svg xmlns="http://www.w3.org/2000/svg" xml:space="preserve" width="2048" height="2048" style="shape-rendering:geometricPrecision;text-rendering:geometricPrecision;image-rendering:optimizeQuality;fill-rule:evenodd;clip-rule:evenodd"><defs><clipPath id="id0"><path d="M1024-.001c565.539 0 1024 458.462 1024 1024 0 565.539-458.462 1024-1024 1024-565.539 0-1024-458.462-1024-1024 0-565.54 458.462-1024 1024-1024z"/></clipPath><style>.fil5{fill:#424242}.fil1{fill:#4dd0e1}.fil11{fill:#bdbdbd}.fil4{fill:#f6c4aa}.fil7{fill:#ffa726}.fil3{fill:#fdc}.fil12{fill:#212121;fill-rule:nonzero}</style></defs><g id="Layer_x0020_1"><path d="M1024-.001c565.539 0 1024 458.462 1024 1024 0 565.539-458.462 1024-1024 1024-565.539 0-1024-458.462-1024-1024 0-565.54 458.462-1024 1024-1024z" style="fill:#80deea"/><g style="clip-path:url(#id0)"><g id="_289349408"><path id="_2909846881" class="fil1" d="M1185.79 882.568 2321.67 2018.45l-1.07 1.53-1.2 1.62-1.32 1.68-1.43 1.76-1.55 1.83-1.66 1.89-1.76 1.95-1.86 2.01-1.96 2.06-2.06 2.11-2.14 2.16-2.24 2.2-2.32 2.24-2.4 2.27-2.47 2.31-2.56 2.34-2.62 2.36-2.68 2.39-2.75 2.4-2.81 2.41-2.87 2.43-2.92 2.43-2.97 2.44-3.01 2.44-3.06 2.43-3.09 2.43-3.13 2.41-3.16 2.41-3.19 2.38-3.21 2.36-3.23 2.34-3.26 2.31L1107.83 952.899l3.25-2.309 3.24-2.339 3.21-2.362 3.19-2.385 3.16-2.402 3.13-2.417 3.09-2.426 3.06-2.434 3.01-2.438 2.97-2.436 2.92-2.435 2.86-2.426 2.81-2.416 2.76-2.401 2.68-2.384 2.62-2.362 2.55-2.336 2.48-2.309 2.4-2.276 2.32-2.241 2.23-2.2 2.15-2.159 2.06-2.112 1.96-2.061 1.86-2.009 1.76-1.95 1.66-1.891 1.54-1.826 1.44-1.757 1.32-1.687 1.2-1.612z"/><path id="_290984832" class="fil1" d="m1487.63 1194.82 1135.88 1135.89 1.56 1.78 1.45 1.86 1.34 1.93 1.23 1.99 1.11 2.05.99 2.1.85 2.16.72 2.2.57 2.25.43 2.3.26 2.33.11 2.37-.06 2.39-.24 2.43-.41 2.45-1135.88-1135.88.41-2.45.24-2.43.06-2.4-.11-2.36-.26-2.34-.43-2.29-.57-2.25-.72-2.2-.85-2.16-.99-2.11-1.11-2.04-1.23-1.99-1.34-1.93-1.45-1.86z"/><path id="_290985672" class="fil1" d="M1497.54 1227.42 2633.42 2363.3l-.01.04v.03l-.01.03-.01.04v.03l-.01.03-.01.04v.03L1497.49 1227.69v-.03l.01-.04.01-.03v-.04l.01-.03.01-.03v-.04z"/><path id="_290985312" class="fil1" d="M940.175 952.902 2076.06 2088.78l-3.26-2.3-3.23-2.34-3.21-2.37-3.19-2.38-3.16-2.4-3.13-2.42-3.1-2.43-3.05-2.43-3.02-2.44-2.97-2.43-2.91-2.44-2.87-2.43-2.81-2.41-2.75-2.4-2.69-2.39-2.62-2.36-2.55-2.34-2.48-2.3-2.4-2.28-2.32-2.24-2.23-2.2L880.227 903.165l2.234 2.201 2.32 2.241 2.4 2.276 2.477 2.309 2.55 2.336 2.621 2.362 2.688 2.384 2.751 2.402 2.809 2.416 2.867 2.427 2.92 2.434 2.968 2.437 3.014 2.437 3.055 2.435 3.095 2.427 3.129 2.416 3.162 2.402 3.189 2.384 3.212 2.364 3.235 2.338z"/><path id="_290984976" class="fil1" d="m1441.87 1488.37 1135.88 1135.88-.56 2.46-.61 2.44-.66 2.41-.73 2.38-.78 2.34-.83 2.3-.89 2.27-.95 2.21-1 2.17-1.06 2.12-1.12 2.05-1.17 2-1.24 1.94-1.28 1.87-1.35 1.8-1.4 1.73-1.46 1.64-1.52 1.57-1.58 1.49-1.63 1.39-1.7 1.31-1.75 1.2-1.81 1.11-1.87 1.01-1.93.91-1.98.79-2.05.68-2.1.57-2.17.44-2.22.33-2.29.19-2.34.07h-126.88L1268.96 1537.56h126.88l2.34-.07 2.29-.19 2.22-.33 2.17-.44 2.1-.57 2.05-.68 1.98-.8 1.93-.9 1.87-1.01 1.81-1.11 1.75-1.21 1.69-1.3 1.64-1.4 1.58-1.48 1.51-1.57 1.47-1.65 1.4-1.72 1.34-1.8 1.29-1.87 1.24-1.94 1.17-2 1.12-2.06 1.06-2.11 1-2.17.95-2.22.89-2.26.83-2.3.78-2.35.72-2.38.67-2.4.61-2.44z"/><path id="_290961576" class="fil1" d="m1268.96 1537.56 1135.88 1135.88v2.26L1268.96 1539.82z"/><path id="_243361896" class="fil1" d="M779.038 1537.56 1914.92 2673.44h-126.88l-2.34-.07-2.29-.19-2.22-.33-2.16-.44-2.11-.57-2.04-.68-1.99-.79-1.93-.91-1.87-1.01-1.81-1.11-1.75-1.2-1.69-1.31L627.956 1528.95l1.693 1.3 1.752 1.21 1.81 1.11 1.869 1.01 1.928.9 1.987.8 2.045.68 2.105.57 2.165.44 2.223.33 2.284.19 2.343.07z"/><path id="_243361992" class="fil1" d="m1406.31 1541.6 1135.88 1135.88.7.9.52 1.03.33 1.13.12 1.22v32.07l-.12 1.22-.33 1.13-.52 1.03-.7.9-.84.74-.96.56-1.06.35-1.14.12h-761.34l-1.13-.12-1.07-.35-.96-.56L637.812 1582.96l.962.56 1.06.36 1.138.12h761.338l1.14-.12 1.06-.36.96-.56.84-.74.69-.89.53-1.03.33-1.14.11-1.21v-32.08l-.11-1.21-.33-1.14-.53-1.02z"/><path id="_243361704" class="fil1" d="M836.488 794.932 1972.37 1930.81l-1.33.07-1.33-.03-1.35-.13-1.36-.23-1.36-.31-1.36-.42-1.37-.5-1.36-.59-1.37-.68-1.35-.76-1.36-.85-1.34-.92-1.34-1.01-1.32-1.08-1.3-1.17-1.29-1.23L814.994 785.088l1.291 1.234 1.307 1.161 1.321 1.084 1.334 1.006 1.345.929 1.352.845 1.36.763 1.363.677 1.365.592 1.367.502 1.364.412 1.36.319 1.355.226 1.348.13 1.337.031z"/><path id="_243361296" class="fil1" d="m1349.95 1147.04 1135.89 1135.88 1.44 1.6 1.43 1.71 1.4 1.82 1.39 1.92 1.36 2.02 1.35 2.12 1.33 2.22 1.32 2.31 1.29 2.41 1.28 2.49 1.26 2.58 1.24 2.67 1.23 2.75 1.21 2.84L1368.49 1178.5l-1.21-2.84-1.23-2.75-1.24-2.67-1.26-2.58-1.28-2.5-1.3-2.4-1.31-2.31-1.33-2.22-1.35-2.12-1.36-2.02-1.39-1.92-1.4-1.82-1.43-1.71z"/><path id="_243361320" class="fil1" d="M1182.34 502.603 2318.22 1638.49l4.05 4.9 3.79 5.26 3.56 5.61 3.31 5.98 3.07 6.33 2.83 6.71 2.6 7.08 2.36 7.45 2.14 7.83 1.9 8.21 1.68 8.59 1.46 8.99 1.23 9.37 1.02 9.78.8 10.16.59 10.58.38 10.98.17 11.38-.04 11.8-.24 12.22-.44 12.63-.64 13.06L1217.92 697.509l.64-13.058.44-12.636.24-12.216.04-11.799-.17-11.387-.38-10.979-.59-10.572-.8-10.169-1.02-9.771-1.24-9.376-1.45-8.985-1.68-8.594-1.91-8.211-2.13-7.83-2.36-7.452-2.6-7.077-2.83-6.706-3.07-6.338-3.31-5.975-3.56-5.614-3.79-5.257z"/><path id="_243361800" class="fil1" d="M1217.92 697.509 2353.8 1833.39l.08 1.41.07 1.4.07 1.4.06 1.41.06 1.4.05 1.4.05 1.41.03 1.4L1218.39 708.738l-.04-1.402-.04-1.404-.05-1.404-.06-1.403-.06-1.404-.07-1.404-.07-1.404z"/><path id="_243361464" class="fil1" d="M1248.72 706.394 2384.6 1842.28l1 1.13.94 1.23.88 1.32.82 1.4.75 1.48.69 1.56.63 1.63.55 1.71.5 1.77.42 1.84.36 1.89.29 1.96.21 2.01.15 2.05.08 2.11.01 2.15-.07 2.18-.14 2.23-.21 2.26-.29 2.28-.36 2.32-.44 2.33-.52 2.35-.59 2.37-.67 2.39-.75 2.39L1252.96 756.734l.75-2.391.67-2.381.59-2.37.52-2.354.44-2.335.36-2.313.29-2.286.21-2.257.14-2.224.07-2.188-.01-2.148-.08-2.105-.15-2.059-.22-2.007-.28-1.954-.36-1.898-.43-1.837-.49-1.771-.56-1.706-.62-1.634-.69-1.56-.75-1.482-.82-1.401-.88-1.315-.94-1.229z"/><path id="_243361512" class="fil1" d="M1252.96 756.734 2388.84 1892.62l-.8 2.33-.87 2.28-.91 2.23-.97 2.17-1.02 2.12-1.06 2.05-1.11 1.99-1.15 1.92-1.19 1.85-1.22 1.79-1.26 1.71-1.29 1.63-1.32 1.56-1.35 1.48-1.37 1.4-1.39 1.31-1.41 1.23-1.42 1.14-1.44 1.05-1.45.96-1.46.86-1.46.76-1.47.67-1.47.56-1.47.46-1.46.35-1.46.24-1.44.14-1.44.02-1.42-.1-1.41-.21-1.38-.34L1211.62 794.351l1.38.334 1.41.214 1.42.096 1.44-.019 1.44-.134 1.46-.243 1.46-.352 1.47-.458 1.47-.562 1.47-.665 1.46-.765 1.46-.861 1.45-.956 1.44-1.049 1.42-1.14 1.41-1.229 1.39-1.314 1.37-1.398 1.35-1.48 1.31-1.559 1.3-1.637 1.25-1.71 1.23-1.785 1.19-1.853 1.15-1.922 1.1-1.988 1.07-2.051 1.02-2.113.96-2.171.92-2.229.86-2.283z"/><path id="_243361824" class="fil1" d="M1211.62 794.351 2347.5 1930.23l-.76 4.22-.77 4.16-.8 4.09-.83 4.02-.84 3.95-.85 3.87-.88 3.79-.88 3.71-.89 3.62-.9 3.53-.91 3.45-.91 3.34-.91 3.25-.91 3.15-.91 3.05-.9 2.94-.89 2.83-.89 2.72-.87 2.6-.86 2.49-.85 2.36-.82 2.23-.81 2.11-.78 1.98-.76 1.85-.73 1.71-.71 1.56-.67 1.43-.64 1.28-.6 1.13-.57.98-.53.82L1185.79 882.568l.53-.824.57-.978.6-1.13.64-1.28.67-1.425.7-1.568.74-1.708.76-1.845.78-1.978.8-2.11.83-2.237.84-2.361.86-2.484.88-2.602.88-2.717.9-2.831.9-2.94.91-3.047.91-3.15.91-3.251.91-3.348.91-3.443.9-3.534.89-3.624.88-3.707.88-3.79.85-3.871.84-3.946.82-4.019.81-4.09.77-4.158z"/><path id="_243361680" class="fil1" d="M1107.83 952.899 2243.71 2088.78v34.36L1107.83 987.257z"/><path id="_243362160" class="fil1" d="M1107.83 987.257 2243.71 2123.14v25.47L1107.83 1012.73z"/><path id="_243362520" class="fil1" d="m1497.49 1227.69 1135.88 1135.88-55.62 260.68-1135.88-1135.88z"/><path id="_289349672" class="fil1" d="M1107.83 1012.73c169.554 74.589 218.857 113.453 239.17 131.434 7.984 7.064 15.065 19.005 21.49 34.334h82.967c25.227 0 51.477 22.659 46.08 48.923-.016.09-.035.18-.054.27l-55.618 260.677c-5.63 26.378-20.712 49.192-46.028 49.192h-126.88v2.264h133.352c3.116 0 5.663 2.725 5.663 6.052v32.074c0 3.33-2.547 6.054-5.663 6.054H640.97c-3.114 0-5.66-2.724-5.66-6.054v-32.074c0-3.327 2.546-6.052 5.66-6.052h138.066v-2.264H652.157c-25.315 0-40.4-22.814-46.027-49.192l-55.62-260.678a5.406 5.406 0 0 1-.051-.269c-5.398-26.264 20.852-48.923 46.08-48.923h82.967c6.425-15.329 13.506-27.27 21.489-34.334 20.244-17.914 71.112-57.57 239.177-131.639V952.904c-34.767-24.471-67.155-54.413-77.966-70.335-5.373-7.91-17.82-42.557-25.72-87.635-14.065 1.258-30.511-14.778-38.221-38.198-8.413-25.532-3.255-50.175 11.512-55.04 4.162-1.37 8.644-1.022 13.124.756-10.261-99.883 19.016-182.14 98.863-219.209 48.727-22.62 143.078-23.949 205.95-10.99 72.477 14.94 98.076 83.698 90.203 225.258.22 3.744.376 7.49.473 11.229 7.512-6.579 15.774-9.44 23.058-7.04 14.768 4.862 19.925 29.504 11.51 55.036-8.29 25.18-26.674 41.824-41.344 37.617-7.894 45.36-20.426 80.272-25.823 88.217-10.814 15.921-43.198 45.861-77.961 70.331V1012.73z"/></g></g><path d="M1024-.001c565.539 0 1024 458.462 1024 1024 0 565.539-458.462 1024-1024 1024-565.539 0-1024-458.462-1024-1024 0-565.54 458.462-1024 1024-1024z" style="fill:none"/><path class="fil3" d="M945.907 1010c-172.645 75.69-224.437 116.042-244.909 134.158-31.547 27.918-48.998 131.98-67.606 220.335h781.216c-18.606-88.355-36.056-192.417-67.606-220.335-20.465-18.116-70.358-57.43-243.012-133.122L945.906 1010z"/><path class="fil3" d="M1107.83 859.131v191.377c-46.108 56.468-121.554 54.515-167.658 0V859.131c0-103.335 167.658-103.335 167.658 0z"/><path class="fil4" d="M1107.83 859.131v128.126c-31.726 23.124-62.3 36.078-83.83 36.078s-52.11-12.954-83.828-36.073V859.13c0-103.335 167.658-103.335 167.658 0z"/><path class="fil3" d="M809.78 701.693c14.76-4.86 33.548 11.895 41.955 37.43 8.416 25.535 3.255 50.176-11.505 55.037-14.767 4.864-33.556-11.892-41.962-37.426-8.413-25.532-3.255-50.175 11.512-55.041zM1241.45 701.697c-14.767-4.863-33.555 11.891-41.963 37.427-8.406 25.534-3.254 50.175 11.513 55.037 14.766 4.864 33.554-11.894 41.961-37.427 8.414-25.532 3.258-50.174-11.51-55.037z"/><path class="fil3" d="M1024 515.546c-281.348 0-180.168 339.963-161.789 367.022C882.474 912.41 978.547 991.514 1024 991.514c45.464 0 141.525-79.1 161.796-108.946 18.385-27.064 119.56-367.022-161.796-367.022z"/><path class="fil5" d="M960.315 592.262c-47.217-31.256-107.753 86.55-123.997 182.306-34.548-131.343-12.947-245.648 85.45-291.326 48.726-22.62 143.077-23.95 205.948-10.99 82.435 16.992 104.226 103.608 85.096 287.78-17.365-77.87-78.688-200.21-125.127-167.77-38.688 27.028-88.635 25.637-127.37 0z"/><path class="fil4" d="M933.796 852.82c61.59 23.822 131.158 21.495 180.415 0-19.69 50.978-152.348 51.39-180.415 0z"/><path d="M880.939 1040.28c-121.404 57.001-162.302 89.119-179.941 104.727-31.547 27.915-48.998 131.974-67.611 220.335H1414.614c-18.612-88.36-36.062-192.422-67.611-220.335-17.04-15.086-54.507-44.875-166.233-98.114-.797.824-1.895 1.408-2.384 2.473-30.43 66.63-84.106 104.616-139.823 123.542-77.232-15.145-143.552-75.012-153.843-127.39-1.254-1.782-2.52-3.489-3.78-5.238z" style="fill:#01579b"/><path class="fil7" d="M681.19 1175.45c-19.867 44.758-33.498 121.96-47.803 189.892H791.96c-3.548-110.828-3.742-169.774-110.77-189.892zM1366.81 1175.45c19.874 44.758 33.498 121.96 47.803 189.892H1256.04c3.54-110.828 3.744-169.774 110.77-189.892zM880.939 1040.28a2058.188 2058.188 0 0 0-32.342 15.514c29.36 61.16 83.023 122.772 189.966 147.015 92.89-27.972 141.643-84.846 169.683-142.566a1944.01 1944.01 0 0 0-27.477-13.35c-.798.824-1.895 1.408-2.384 2.473-30.431 66.63-84.106 104.616-139.823 123.542-77.232-15.145-143.552-75.012-153.843-127.39-1.254-1.782-2.52-3.489-3.78-5.238z"/><path d="M640.972 1539.82h761.34c3.116 0 5.662 2.724 5.662 6.052v32.074c0 3.33-2.546 6.053-5.662 6.053h-761.34c-3.115 0-5.661-2.724-5.661-6.053v-32.074c0-3.328 2.546-6.052 5.661-6.052z" style="fill:#616161"/><path d="M1395.84 1537.56c25.316 0 40.398-22.813 46.028-49.193l55.618-260.677c5.629-26.379-20.713-49.193-46.027-49.193H596.541c-25.313 0-51.655 22.814-46.027 49.193l55.62 260.677c5.627 26.38 20.71 49.193 46.027 49.193h743.679z" style="fill:#b0b0b0"/><path d="M1497.54 1227.42c5.393-26.265-20.852-48.924-46.08-48.924H596.542c-25.227 0-51.472 22.659-46.08 48.924h947.078z" style="fill:#a8a8a8"/><path class="fil5" d="M779.038 1536.81h71.043v4.412h-71.043zM1197.92 1536.81h71.044v4.412h-71.044zM672.728 1549.37h82.765v25.079h-82.765z"/><path class="fil11" d="M678.563 1553.29h9.043v17.239h-9.043zM693.01 1553.29h9.043v17.239h-9.043zM707.458 1553.29h9.043v17.239h-9.043zM721.905 1553.29h9.044v17.239h-9.044zM736.352 1553.29h9.043v17.239h-9.043z"/><path class="fil5" d="M1287.79 1552.19h82.765v19.441h-82.765z"/><path class="fil11" d="M1298.97 1555.44h60.416v12.938h-60.416zM1293.02 1559.97c1.005 0 1.819.87 1.819 1.945 0 1.075-.814 1.946-1.819 1.946-1.006 0-1.82-.87-1.82-1.946 0-1.075.814-1.945 1.82-1.945zM1365.04 1559.97c1.005 0 1.82.87 1.82 1.945 0 1.075-.815 1.946-1.82 1.946-1.005 0-1.82-.87-1.82-1.946 0-1.075.815-1.945 1.82-1.945z"/><path class="fil12" d="M1293.02 1559.52c.617 0 1.178.27 1.58.702.405.432.657 1.03.657 1.69 0 .659-.252 1.258-.657 1.69a2.158 2.158 0 0 1-1.58.701c-.617 0-1.178-.269-1.583-.701a2.479 2.479 0 0 1-.655-1.69c0-.66.253-1.258.655-1.69a2.168 2.168 0 0 1 1.583-.702zm.992 1.331a1.36 1.36 0 0 0-.992-.438c-.389 0-.74.169-.993.438-.252.27-.409.645-.409 1.06 0 .415.157.79.409 1.061.252.27.604.437.993.437.387 0 .74-.167.992-.437s.41-.646.41-1.06c0-.416-.158-.792-.41-1.06zM1365.04 1559.52c.618 0 1.179.27 1.581.702.406.432.657 1.03.657 1.69 0 .659-.251 1.258-.657 1.69a2.159 2.159 0 0 1-1.581.701c-.617 0-1.178-.269-1.581-.701a2.473 2.473 0 0 1-.656-1.69c0-.66.252-1.258.655-1.69a2.163 2.163 0 0 1 1.582-.702zm.992 1.331a1.356 1.356 0 0 0-.992-.438c-.389 0-.74.169-.992.438-.253.27-.41.645-.41 1.06 0 .415.157.79.41 1.061.253.27.603.437.992.437s.74-.167.992-.437c.253-.27.411-.646.411-1.06 0-.416-.158-.792-.41-1.06z"/><path class="fil11" d="M790.199 1554.6h120.922v3.017H790.199zM790.199 1560.4h120.922v3.019H790.199zM790.199 1566.21h120.922v3.017H790.199zM1132.17 1554.6h120.922v3.017H1132.17zM1132.17 1560.4h120.922v3.019H1132.17zM1132.17 1566.21h120.922v3.017H1132.17zM1024 1315.66c35.517 0 64.308 23.496 64.308 52.48 0 28.983-28.791 60.839-64.308 60.839-35.516 0-64.308-31.856-64.308-60.839 0-28.984 28.792-52.48 64.308-52.48z"/><path d="M1122.51 694.692c55.408-4.68 85.752 8.047 91.428 10.685 6.841 3.193 5.269 26.222-.524 30.808-5.793 4.591-10.528 22.939-24.227 45.877-8.805 14.747-39.64 20.99-66.677 22.66v-6.443c22.103-1.27 45.255-6.192 55.325-14.815 20.44-17.514 22.387-54.783 7.374-72.132-7.873-9.11-35.317-11.648-62.7-10.024v-6.616zm-197.017 0 2.32.208c56.882 5.238 69 19.003 74.792 18.35 6.776-.766 14.097-1.917 21.014-1.917 6.915 0 14.747 1.118 21.787 1.918 5.792.652 17.902-13.113 74.784-18.351l2.32-.208v6.617l-.282.02c-27.48 1.66-63.325 9.589-70.363 29.185-7.032 19.592 6.365 54.614 25.799 63.365 8.82 3.976 26.47 5.447 44.846 4.4v6.442c-15.029.923-28.876.436-37.132-.797-23.169-3.45-40.504-38.244-43.659-48.735-7.107-23.558-28.328-23.558-35.428 0-3.162 10.49-20.497 45.285-43.665 48.735-8.257 1.233-22.104 1.72-37.133.797v-6.441c18.381 1.046 36.033-.425 44.856-4.401 19.423-8.751 32.83-43.773 25.79-63.365-7.033-19.596-42.884-27.526-70.357-29.185l-.29-.02v-6.617zm-91.428 10.685c5.683-2.638 36.026-15.366 91.428-10.685v6.617c-27.372-1.636-54.82.922-62.699 10.024-15.006 17.348-13.066 54.617 7.373 72.13 10.07 8.624 33.222 13.546 55.326 14.817v6.441c-27.04-1.669-57.873-7.912-66.671-22.66-13.696-22.937-18.433-41.285-24.226-45.876-5.8-4.586-7.372-27.615-.531-30.808z" style="fill:#212121"/><path class="fil3" d="M862.792 711.332c7.906-9.132 35.517-11.67 62.988-10.004 27.473 1.66 63.324 9.59 70.356 29.185 7.04 19.592-6.366 54.614-25.79 63.365-19.44 8.763-81.741 5.387-100.181-10.415-20.44-17.513-22.379-54.783-7.373-72.131zM1185.21 711.332c-7.897-9.132-35.51-11.67-62.981-10.004-27.48 1.66-63.325 9.59-70.363 29.185-7.032 19.592 6.365 54.614 25.799 63.365 19.431 8.763 81.73 5.387 100.172-10.415 20.439-17.513 22.386-54.783 7.373-72.131z"/></g></svg>